<?xml version="1.0" encoding="UTF-8"?>
<svg version="1.1" xmlns="http://www.w3.org/2000/svg" viewBox="0 0 400 279">
    <g transform="translate(0.000000,279.000000) scale(0.100000,-0.100000)">
        <path d="M0 2609l0-181 61-66c119-130 783-1024 1005-1353l91-137 7 67c7 82 6 688-3 1072-7 333-4 324-100 334-128 14-151 24-151 69 0 51 13 53 315 54 311 1 325-2 325-58 0-38-17-46-124-59-135-16-120 106-126-1027-5-951-5-976-24-990-11-8-37-14-57-14-48 0-45-3-319 390-390 557-761 1065-855 1167l-44 48-1-962 0-963 965 0 965 0 0 1395 0 1395-965 0-965 0 0-181zM2070 2127l0-663 64 7c170 21 362 122 506 268 145 148 266 409 245 531-9 53-50 87-115 96-65 9-79 21-73 62l5 32 389 0 389 0 0-39c0-43 1-42-103-57-81-11-107-36-153-151-23-55-58-132-79-169-54-99-166-244-238-309-122-110-311-221-455-267-39-13-72-26-72-29 0-3 19-12 43-18 94-29 246-95 317-139 93-58 241-203 307-302 61-92 135-238 192-382 32-80 52-116 77-138 19-16 38-30 42-30 4 0 36-5 71-10 66-9 81-19 81-57 0-44-23-47-375-45-182 1-344 2-362 2-39 0-63 23-63 59 0 26 4 29 58 41 82 18 109 34 122 76 29 88-48 287-179 464-59 78-186 204-256 255-117 83-248 135-342 135l-43 0 0-675 0-675 965 0 965 0 0 1395 0 1395-965 0-965 0 0-663z"/>
    </g>
</svg>