<?xml version="1.0" encoding="UTF-8"?>
<svg version="1.1" xmlns="http://www.w3.org/2000/svg" viewBox="0 0 1024 1024">
<path fill="#000" d="M745.991 17.888c-6.784 0.773-16.278 2.301-21.079 3.392-17.538 3.99-19.065 4.361-21.079 5.162-1.139 0.448-4.609 1.628-7.709 2.621-6.997 2.239-11.067 3.943-27.251 11.448-9.298 4.305-30.894 17.244-33.431 20.025-0.278 0.309-2.134 1.697-4.114 3.063-10.307 7.185-29.565 25.456-38.839 36.847-1.549 1.901-3.851 4.732-5.104 6.295-5.67 7.021-19.756 29.206-23.848 37.581-5.836 11.946-5.66 11.757-9.64 10.733-3.692-0.953-14.816-3.292-26.446-5.573-61.68-12.102-146.175-8.302-197.993 8.928-1.701 0.566-4.707 1.392-6.684 1.835-4.238 0.959-8.884 2.567-26.748 9.224-11.105 4.144-30.899 12.255-32.915 13.49-0.844 0.525-2.239 1.206-3.083 1.522s-2.239 0.991-3.083 1.496c-0.844 0.501-3.863 2.082-6.684 3.523-29.052 14.755-62.722 37.537-87.429 59.156-6.712 5.879-38.757 38.181-43.387 43.742-10.986 13.208-21.125 26.446-28.921 37.799-6.167 8.993-16.672 25.293-16.672 25.889 0 0.278-1.454 2.944-3.216 5.947-3.866 6.533-15.078 28.733-18.877 37.334-1.5 3.392-3.211 7.069-3.808 8.157-0.593 1.086-1.454 3.181-1.915 4.625-0.459 1.454-1.816 5.183-3.017 8.3-7.243 18.669-15.533 47.363-19.902 68.911-6.615 32.582-8.167 51.395-7.617 92.228 0.44 32.417 1.083 41.231 4.403 59.604 0.833 4.607 1.511 9.744 1.511 11.44 0 1.699 0.698 5.042 1.542 7.454s1.542 5.532 1.542 6.934c0 1.407 0.67 4.707 1.5 7.331 3.246 10.316 4.671 15.908 4.671 18.197 0 1.32 0.423 2.655 0.956 2.979 0.526 0.329 1.268 2.082 1.639 3.924 1.021 4.865 10.724 33.161 13.838 40.362 35.89 82.669 99.032 158.26 165.808 198.488 0.959 0.578 7.207 4.344 13.888 8.38 16.672 10.053 52.792 28.153 56.196 28.153 0.721 0 1.763 0.428 2.298 0.959 1.46 1.438 32.915 12.094 46.739 15.842 3.114 0.839 7.739 2.097 10.287 2.79 9.090 2.454 17.063 4.195 23.143 5.042 3.392 0.464 7.47 1.373 9.063 2.005 1.588 0.636 4.9 1.144 7.34 1.144s8.32 0.79 13.047 1.763c12.763 2.621 90.451 2.629 104.513 0.007 5.227-0.967 11.336-1.763 13.565-1.763 2.224 0 5.351-0.494 6.939-1.094s5.662-1.503 9.063-1.992c17.893-2.571 57.347-14.161 81.256-23.852 14.285-5.785 48.495-22.8 57.599-28.648 1.701-1.083 3.781-2.331 4.625-2.763 3.334-1.701 17.511-11.228 27.768-18.651 58.619-42.438 102.594-94.844 137.302-163.66 3.958-7.852 10.804-23.724 10.812-25.075 0.005-0.64 0.65-2.382 1.427-3.868s2.408-5.66 3.619-9.25c1.206-3.596 2.582-7.459 3.058-8.595 1.674-4.074 3.407-9.327 4.344-13.146 0.526-2.135 1.349-4.683 1.842-5.66 1.965-3.889 6.58-23.701 10.33-44.449 8.63-47.687 8.619-109.049-0.041-154.791-1.175-6.218-2.497-13.393-2.93-15.939-0.428-2.548-1.315-5.928-1.954-7.516-2.505-6.155-1.484-7.127 15.277-14.447 0.844-0.37 2.938-1.583 4.625-2.706 1.701-1.118 3.794-2.382 4.653-2.815 2.815-1.4 13.702-8.847 21.064-14.383 3.958-2.979 8.583-6.465 10.287-7.739s8.188-7.408 14.416-13.641c9.632-9.62 14.523-15.267 25.826-29.831 1.361-1.755 6.959-10.318 11.425-17.507 0.698-1.118 4.301-8.28 8.017-15.924 3.72-7.64 7.204-14.692 7.736-15.677 0.527-0.979 0.975-2.374 0.979-3.083s0.65-2.541 1.45-4.052c0.79-1.516 1.769-4.284 2.186-6.141s1.098-4.090 1.542-4.956c8.195-16.123 12.589-75.503 7.756-104.429-2.691-16.077-4.176-23.62-4.846-24.684-0.355-0.571-0.967-3-1.373-5.4-0.402-2.398-1.144-4.62-1.661-4.946-0.522-0.32-0.945-1.588-0.948-2.829s-0.702-3.578-1.542-5.201c-0.839-1.623-1.533-3.626-1.533-4.475s-0.633-2.753-1.392-4.248c-0.773-1.508-4.024-8.056-7.227-14.563-7.889-16.016-14.015-27.188-15.129-27.602-0.51-0.189-0.921-0.959-0.921-1.723 0-0.767-0.588-2.001-1.322-2.749s-4.547-5.532-8.488-10.611c-14.339-18.528-35.702-38.324-56.535-52.406-11.448-7.736-44.234-24.219-48.173-24.219-0.871 0-1.842-0.421-2.164-0.94-0.324-0.525-2.433-1.257-4.678-1.639-2.258-0.384-4.352-1.083-4.648-1.577s-2.629-1.195-5.165-1.577c-2.541-0.382-4.865-1.098-5.173-1.6-0.313-0.501-1.973-0.905-3.692-0.905-1.723 0-5.744-0.668-8.939-1.487-16.722-4.291-50.526-5.686-73.691-3.053zM786.426 147.146c9.948 6.588 10.57 9.479 10.486 48.772-0.046 22.549 0.267 31.237 1.134 31.769 0.65 0.402 15.373 0.803 32.688 0.875 34.966 0.155 36.616 0.402 43.396 6.73 8.877 8.283 8.522 24.59-0.686 32.261-7.39 6.155-11.395 6.757-44.262 6.652-16.475-0.046-30.467 0.232-31.109 0.633-0.83 0.512-1.16 9.963-1.16 32.413 0 37.659 0.131 36.797-6.584 43.93-12.315 13.084-31.409 10.018-39.128-6.279l-2.629-5.573v-64.924l-2.32-0.077c-1.268-0.034-14.871-0.012-30.212 0.069-28.833 0.15-37.379-0.835-41.279-4.732-0.767-0.767-1.949-1.745-2.629-2.186-1.997-1.274-5.858-7.26-5.858-9.051 0-0.905-0.525-2.629-1.148-3.805-1.577-2.949 0.716-12.562 4.094-17.061 6.276-8.38 13.984-9.826 49.088-9.24 15.468 0.267 28.561 0.205 29.106-0.14 0.588-0.367 1.129-14.074 1.33-34.029 0.37-36.956 0.474-37.581 7.702-44.404 7.482-7.079 21.435-8.295 29.988-2.629zM479.066 276.001c20.702 2.77 42.963 7.081 50.414 9.743 1.409 0.51 4.464 1.395 6.774 1.992 4.078 1.037 4.241 1.257 5.476 6.992 3.079 14.281 5.537 23.184 8.989 32.66 1.45 3.958 3.366 9.281 4.259 11.829 3.886 10.981 25.61 49.706 30.004 53.481 0.331 0.278 2.196 2.599 4.14 5.147 18.613 24.323 50.147 49.73 79.203 63.82 9.151 4.436 12.177 5.784 16.976 7.509 2.258 0.821 8.048 2.938 12.851 4.732 4.806 1.784 10.828 3.658 13.376 4.158 4.792 0.948 10.981 2.482 17.847 4.423 4.98 1.409 6.712 5.805 11.622 29.531 6.544 31.631 8.415 79.362 4.016 102.847-0.79 4.238-2.232 12.107-3.187 17.48-2.783 15.496-9.092 38.629-12.912 47.305-2.077 4.732-3.758 8.696-5.981 14.165-2.938 7.212-16.331 33.235-18.159 35.292-0.793 0.897-1.454 1.908-1.454 2.258 0 0.752-5.227 8.692-9.714 14.76-1.727 2.34-3.84 5.3-4.683 6.588-3.677 5.538-19.527 24.446-25.333 30.181-35.972 35.602-68.698 57.051-111.979 73.34-2.258 0.849-5.636 2.196-7.494 2.996s-4.19 1.441-5.191 1.441-2.258 0.408-2.795 0.917c-0.535 0.51-3.062 1.395-5.601 1.99s-8.326 2.001-12.855 3.124c-44.849 11.228-94.101 11.104-142.441-0.402-14.573-3.465-15.579-3.776-32.656-10.173-36.488-13.649-68.517-33.359-98.147-60.365-8.63-7.867-26.694-27.009-31.438-33.332-9.434-12.557-17.6-24.060-21.064-29.649-9.337-15.121-21.596-40.258-26.407-54.163-6.999-20.213-9.559-28.914-11.849-40.118-9.434-46.173-8.011-100.829 3.728-142.445 1.118-3.958 2.413-8.583 2.877-10.287 1.228-4.464 5.7-16.798 8.197-22.621 6.388-14.913 13.299-29.025 18.899-38.571 5.157-8.781 14-22.695 15.032-23.662 0.304-0.278 3.557-4.449 7.207-9.25s7.135-9.25 7.709-9.879c0.587-0.629 4.059-4.556 7.739-8.746 8.346-9.496 18.204-19.168 26.231-25.757 6.836-5.601 24.838-19.331 27.464-20.94 0.921-0.566 4.149-2.694 7.161-4.737 12.049-8.164 35.961-20.322 53.303-27.101 2.548-0.994 5.784-2.27 7.204-2.845 11.661-4.712 46.582-13.106 61.203-14.716 3.392-0.377 8.488-1.030 11.309-1.455 9.767-1.484 47.653-1.156 60.158 0.522z"></path>
</svg>
